<?xml version="1.0" standalone="no"?>
<!DOCTYPE svg PUBLIC "-//W3C//DTD SVG 20010904//EN"
 "http://www.w3.org/TR/2001/REC-SVG-20010904/DTD/svg10.dtd">
<svg version="1.0" xmlns="http://www.w3.org/2000/svg"
 width="741.000000pt" height="741.000000pt" viewBox="0 0 741.000000 741.000000"
 preserveAspectRatio="xMidYMid meet">
<metadata>
Created by potrace 1.14, written by Peter Selinger 2001-2017
</metadata>
<g transform="translate(0.000000,741.000000) scale(0.100000,-0.100000)"
fill="#000000" stroke="none">
<path d="M1555 7399 c-803 -53 -1452 -677 -1545 -1484 -14 -124 -14 -4296 0
-4420 57 -494 326 -937 733 -1208 250 -166 524 -257 837 -277 83 -6 991 -10
2125 -10 1134 0 2042 4 2125 10 313 20 587 111 837 277 358 239 618 624 710
1053 17 81 18 202 18 2365 0 2163 -1 2284 -18 2365 -92 429 -352 814 -710
1053 -250 166 -524 257 -837 277 -175 12 -4101 11 -4275 -1z m1985 -2623 c170
-12 393 -95 554 -206 87 -60 234 -209 294 -297 57 -85 117 -206 149 -304 l27
-82 27 79 c64 187 144 318 280 459 230 238 515 357 849 356 451 -2 846 -249
1051 -658 162 -323 158 -713 -12 -1043 -101 -196 -93 -188 -1182 -1192 l-1008
-929 -177 164 c-97 89 -535 492 -972 893 -437 402 -833 771 -880 820 -210 218
-287 404 -297 719 -6 173 9 283 58 430 145 433 557 758 1009 794 52 4 109 6
125 4 17 -1 64 -4 105 -7z"/>
</g>
</svg>
